<svg width="23" height="26" viewBox="0 0 23 26" fill="none" xmlns="http://www.w3.org/2000/svg">
<path d="M0.821428 4.0625H5.05076L6.7963 1.18066C7.28504 0.448246 8.03973 0 8.90223 0H14.0978C14.9603 0 15.7612 0.448246 16.2027 1.18066L17.9492 4.0625H22.1786C22.6342 4.0625 23 4.42457 23 4.875V5.6875C23 6.13945 22.6342 6.5 22.1786 6.5H21.3571V22.75C21.3571 24.5451 19.8863 26 18.0714 26H4.92857C3.11373 26 1.64286 24.5451 1.64286 22.75V6.5H0.821428C0.364508 6.5 0 6.13945 0 5.6875V4.875C0 4.42457 0.364508 4.0625 0.821428 4.0625ZM14.1748 2.58375C14.1234 2.49488 14.0208 2.4375 13.9129 2.4375H9.08705C8.97796 2.4375 8.87528 2.49463 8.82394 2.5835L7.92678 4.0625H15.0732L14.1748 2.58375ZM4.92857 23.5625H18.0714C18.5251 23.5625 18.8929 23.1988 18.8929 22.75V6.5H4.10714V22.75C4.10714 23.1969 4.47679 23.5625 4.92857 23.5625ZM11.5 21.125C11.046 21.125 10.6786 20.7616 10.6786 20.3125V9.75C10.6786 9.30089 11.046 8.9375 11.5 8.9375C11.954 8.9375 12.3214 9.30313 12.3214 9.75V20.3125C12.3214 20.7594 11.9518 21.125 11.5 21.125ZM15.6071 21.125C15.1554 21.125 14.7857 20.7594 14.7857 20.3125V9.75C14.7857 9.30089 15.1531 8.9375 15.6071 8.9375C16.0612 8.9375 16.4286 9.30313 16.4286 9.75V20.3125C16.4286 20.7594 16.0589 21.125 15.6071 21.125ZM7.39286 21.125C6.93881 21.125 6.57143 20.7616 6.57143 20.3125V9.75C6.57143 9.30089 6.93881 8.9375 7.39286 8.9375C7.8469 8.9375 8.21428 9.30313 8.21428 9.75V20.3125C8.21428 20.7594 7.84464 21.125 7.39286 21.125Z" fill="black"/>
</svg>
