<svg width="24" height="24" viewBox="0 0 24 24" fill="none" xmlns="http://www.w3.org/2000/svg">
<g clip-path="url(#clip0_28_1384)">
<path opacity="0.995" fill-rule="evenodd" clip-rule="evenodd" d="M12.8906 -0.046875C13.0469 -0.046875 13.2031 -0.046875 13.3594 -0.046875C12.0469 1.32813 10.7032 2.67188 9.32812 3.98438C9.34723 3.70147 9.37847 3.42022 9.42188 3.14062C10.542 2.17691 11.6045 1.14566 12.6094 0.046875C12.7304 0.0691223 12.8242 0.0378724 12.8906 -0.046875Z" fill="white"/>
<path opacity="0.991" fill-rule="evenodd" clip-rule="evenodd" d="M13.3594 -0.046875C13.5781 -0.046875 13.7969 -0.046875 14.0156 -0.046875C14.1719 0.015625 14.3281 0.078125 14.4844 0.140625C14.0156 0.546875 13.5781 0.984375 13.1719 1.45312C11.8594 1.70313 11.0782 2.48438 10.8281 3.79688C10.3594 4.20312 9.92184 4.64062 9.51562 5.10938C9.37603 4.75915 9.31352 4.38415 9.32812 3.98438C10.7032 2.67188 12.0469 1.32813 13.3594 -0.046875Z" fill="white"/>
<path opacity="0.994" fill-rule="evenodd" clip-rule="evenodd" d="M12.6094 0.046875C11.6045 1.14566 10.542 2.17691 9.42188 3.14062C9.93056 1.53815 10.9931 0.506899 12.6094 0.046875Z" fill="white"/>
<path opacity="0.998" fill-rule="evenodd" clip-rule="evenodd" d="M14.4844 0.140625C14.6452 0.152688 14.8015 0.183938 14.9531 0.234375C14.5781 0.640625 14.2031 1.04688 13.8281 1.45312C13.6094 1.45312 13.3906 1.45312 13.1719 1.45312C13.5781 0.984375 14.0156 0.546875 14.4844 0.140625Z" fill="white"/>
<path opacity="0.993" fill-rule="evenodd" clip-rule="evenodd" d="M14.9531 0.234375C15.2381 0.345032 15.4881 0.501281 15.7031 0.703125C15.3907 1.07812 15.0469 1.42188 14.6719 1.73438C14.3947 1.62608 14.1134 1.53233 13.8281 1.45312C14.2031 1.04688 14.5781 0.640625 14.9531 0.234375Z" fill="white"/>
<path opacity="0.98" fill-rule="evenodd" clip-rule="evenodd" d="M15.7031 0.703125C15.8816 0.725398 16.0067 0.819148 16.0781 0.984375C15.7657 1.32813 15.4531 1.67187 15.1406 2.01562C14.9593 1.95841 14.803 1.86466 14.6719 1.73438C15.0469 1.42188 15.3907 1.07812 15.7031 0.703125Z" fill="white"/>
<path opacity="0.997" fill-rule="evenodd" clip-rule="evenodd" d="M16.0781 0.984375C16.3282 1.17188 16.5469 1.39062 16.7344 1.64062C16.3594 1.95312 16.0156 2.29688 15.7031 2.67188C15.5183 2.45548 15.3308 2.23673 15.1406 2.01562C15.4531 1.67187 15.7657 1.32813 16.0781 0.984375Z" fill="white"/>
<path opacity="0.989" fill-rule="evenodd" clip-rule="evenodd" d="M16.7344 1.64062C16.827 1.76203 16.9208 1.88703 17.0156 2.01562C16.6406 2.35938 16.2656 2.70312 15.8906 3.04688C15.7806 2.95184 15.7181 2.82684 15.7031 2.67188C16.0156 2.29688 16.3594 1.95312 16.7344 1.64062Z" fill="white"/>
<path opacity="0.999" fill-rule="evenodd" clip-rule="evenodd" d="M17.0156 2.01562C17.1664 2.28582 17.2913 2.56707 17.3906 2.85938C16.9531 3.26562 16.5157 3.67188 16.0781 4.07812C16.0602 3.72543 15.9977 3.38168 15.8906 3.04688C16.2656 2.70312 16.6406 2.35938 17.0156 2.01562Z" fill="white"/>
<path opacity="0.99" fill-rule="evenodd" clip-rule="evenodd" d="M17.3906 2.85938C17.4516 3.0408 17.4828 3.2283 17.4844 3.42188C16.9844 3.89062 16.4843 4.35938 15.9844 4.82812C16.0399 4.58183 16.0711 4.33183 16.0781 4.07812C16.5157 3.67188 16.9531 3.26562 17.3906 2.85938Z" fill="white"/>
<path opacity="0.996" fill-rule="evenodd" clip-rule="evenodd" d="M17.4844 3.42188C17.6057 3.83755 17.6057 4.24381 17.4844 4.64062C16.2656 5.79687 15.0781 6.98438 13.9219 8.20312C13.4784 8.18282 13.0409 8.21407 12.6094 8.29688C13.1407 7.73438 13.6718 7.17188 14.2031 6.60938C15.0781 6.29688 15.6719 5.70312 15.9844 4.82812C16.4843 4.35938 16.9844 3.89062 17.4844 3.42188Z" fill="white"/>
<path opacity="0.993" fill-rule="evenodd" clip-rule="evenodd" d="M10.8281 3.79688C10.8281 4.01562 10.8281 4.23438 10.8281 4.45312C10.3847 4.80252 10.0097 5.20878 9.70312 5.67188C9.58706 5.51116 9.52453 5.32366 9.51562 5.10938C9.92184 4.64062 10.3594 4.20312 10.8281 3.79688Z" fill="white"/>
<path opacity="0.993" fill-rule="evenodd" clip-rule="evenodd" d="M10.8281 4.45312C10.9073 4.73842 11.0011 5.01967 11.1094 5.29688C10.7969 5.67188 10.4531 6.01563 10.0781 6.32812C9.88238 6.15604 9.75741 5.93729 9.70312 5.67188C10.0097 5.20878 10.3847 4.80252 10.8281 4.45312Z" fill="white"/>
<path opacity="0.995" fill-rule="evenodd" clip-rule="evenodd" d="M17.4844 4.64062C17.4933 4.94032 17.4307 5.22157 17.2969 5.48438C16.3282 6.39063 15.3907 7.32813 14.4844 8.29688C14.2908 8.29526 14.1033 8.26402 13.9219 8.20312C15.0781 6.98438 16.2656 5.79687 17.4844 4.64062Z" fill="white"/>
<path opacity="0.978" fill-rule="evenodd" clip-rule="evenodd" d="M11.1094 5.29688C11.2397 5.42806 11.3334 5.5843 11.3906 5.76562C11.0094 6.05276 10.697 6.39651 10.4531 6.79688C10.2575 6.69519 10.1325 6.53895 10.0781 6.32812C10.4531 6.01563 10.7969 5.67188 11.1094 5.29688Z" fill="white"/>
<path opacity="0.991" fill-rule="evenodd" clip-rule="evenodd" d="M17.2969 5.48438C17.0655 6.1801 16.6593 6.75823 16.0781 7.21875C16.2249 7.27577 16.35 7.35389 16.4531 7.45312C16.1068 7.86191 15.7318 8.23691 15.3281 8.57812C15.0631 8.44141 14.7818 8.34766 14.4844 8.29688C15.3907 7.32813 16.3282 6.39063 17.2969 5.48438Z" fill="white"/>
<path opacity="0.993" fill-rule="evenodd" clip-rule="evenodd" d="M11.3906 5.76562C11.6117 5.95587 11.8305 6.14337 12.0469 6.32812C10.1407 8.17188 8.26563 10.0469 6.42188 11.9531C5.98098 11.9472 5.54348 11.9785 5.10938 12.0469C5.57812 11.5469 6.04688 11.0468 6.51562 10.5469C6.80516 10.6001 7.08641 10.6001 7.35938 10.5469C8.13284 9.03905 9.28909 7.92967 10.8281 7.21875C10.6837 7.0902 10.5586 6.94957 10.4531 6.79688C10.697 6.39651 11.0094 6.05276 11.3906 5.76562Z" fill="white"/>
<path opacity="0.998" fill-rule="evenodd" clip-rule="evenodd" d="M12.0469 6.32812C12.2018 6.34309 12.3268 6.40559 12.4219 6.51562C10.5781 8.39062 8.73438 10.2656 6.89062 12.1406C6.72134 12.0915 6.56509 12.029 6.42188 11.9531C8.26563 10.0469 10.1407 8.17188 12.0469 6.32812Z" fill="white"/>
<path opacity="0.995" fill-rule="evenodd" clip-rule="evenodd" d="M12.4219 6.51562C12.7567 6.62271 13.1004 6.68521 13.4531 6.70312C12.9218 7.26562 12.3907 7.82812 11.8594 8.39062C10.2747 8.94397 9.18097 10.0065 8.57812 11.5781C8.29099 11.9593 7.94724 12.2718 7.54688 12.5156C7.32813 12.3907 7.10937 12.2656 6.89062 12.1406C8.73438 10.2656 10.5781 8.39062 12.4219 6.51562Z" fill="white"/>
<path opacity="0.994" fill-rule="evenodd" clip-rule="evenodd" d="M14.2031 6.60938C13.6718 7.17188 13.1407 7.73438 12.6094 8.29688C12.3593 8.32812 12.1094 8.35938 11.8594 8.39062C12.3907 7.82812 12.9218 7.26562 13.4531 6.70312C13.7068 6.69608 13.9568 6.66484 14.2031 6.60938Z" fill="white"/>
<path opacity="0.99" fill-rule="evenodd" clip-rule="evenodd" d="M16.4531 7.45312C16.6344 7.51034 16.7907 7.60409 16.9219 7.73438C16.5469 8.04687 16.2031 8.39062 15.8906 8.76562C15.7031 8.70312 15.5156 8.64063 15.3281 8.57812C15.7318 8.23691 16.1068 7.86191 16.4531 7.45312Z" fill="white"/>
<path opacity="0.998" fill-rule="evenodd" clip-rule="evenodd" d="M16.9219 7.73438C17.1689 7.85727 17.3877 8.01353 17.5781 8.20312C17.2657 8.54688 16.9531 8.89062 16.6406 9.23438C16.3583 9.12475 16.1083 8.9685 15.8906 8.76562C16.2031 8.39062 16.5469 8.04687 16.9219 7.73438Z" fill="white"/>
<path opacity="0.991" fill-rule="evenodd" clip-rule="evenodd" d="M17.5781 8.20312C17.7344 8.29688 17.8594 8.42187 17.9531 8.57812C17.6093 8.89062 17.2657 9.20313 16.9219 9.51562C16.7969 9.45309 16.7032 9.35937 16.6406 9.23438C16.9531 8.89062 17.2657 8.54688 17.5781 8.20312Z" fill="white"/>
<path opacity="0.993" fill-rule="evenodd" clip-rule="evenodd" d="M17.9531 8.57812C18.1528 8.73067 18.3403 8.90254 18.5156 9.09375C18.2032 9.40622 17.8906 9.71878 17.5781 10.0312C17.3002 9.95887 17.0814 9.78703 16.9219 9.51562C17.2657 9.20313 17.6093 8.89062 17.9531 8.57812Z" fill="white"/>
<path opacity="0.99" fill-rule="evenodd" clip-rule="evenodd" d="M5.67189 10.4531C5.97312 10.4241 6.25437 10.4553 6.51564 10.5469C6.04689 11.0469 5.57814 11.5469 5.10939 12.0469C4.51565 12.3281 4.07814 12.7657 3.79689 13.3594C3.2969 13.8281 2.79689 14.2969 2.29689 14.7656C2.20676 14.6002 2.17552 14.4127 2.20314 14.2031C3.43425 13.019 4.653 11.8158 5.85939 10.5938C5.77354 10.5677 5.71103 10.5208 5.67189 10.4531Z" fill="white"/>
<path opacity="0.999" fill-rule="evenodd" clip-rule="evenodd" d="M5.67188 10.4531C5.71102 10.5208 5.77352 10.5677 5.85938 10.5938C4.65298 11.8158 3.43423 13.019 2.20312 14.2031C2.21042 13.6336 2.33542 13.1024 2.57812 12.6094C3.20313 12.0469 3.79688 11.4532 4.35938 10.8281C4.7638 10.6215 5.2013 10.4964 5.67188 10.4531Z" fill="white"/>
<path opacity="0.963" fill-rule="evenodd" clip-rule="evenodd" d="M4.35938 10.8281C3.79688 11.4532 3.20313 12.0469 2.57812 12.6094C2.95312 11.7968 3.54687 11.2031 4.35938 10.8281Z" fill="white"/>
<path opacity="0.989" fill-rule="evenodd" clip-rule="evenodd" d="M8.57812 11.5781C8.76966 11.6793 8.89465 11.8356 8.95312 12.0469C8.55276 12.2907 8.20901 12.6032 7.92188 12.9844C7.77537 12.8489 7.65037 12.6927 7.54688 12.5156C7.94724 12.2718 8.29099 11.9593 8.57812 11.5781Z" fill="white"/>
<path opacity="0.994" fill-rule="evenodd" clip-rule="evenodd" d="M8.95312 12.0469C9.14887 12.219 9.27387 12.4377 9.32812 12.7031C8.98437 13.1093 8.60937 13.4843 8.20312 13.8281C8.12393 13.5428 8.03018 13.2616 7.92188 12.9844C8.20901 12.6032 8.55276 12.2907 8.95312 12.0469Z" fill="white"/>
<path opacity="0.996" fill-rule="evenodd" clip-rule="evenodd" d="M9.32812 12.7031C9.44419 12.8638 9.50672 13.0513 9.51562 13.2656C9.07812 13.6718 8.64063 14.0782 8.20312 14.4844C8.20312 14.2657 8.20312 14.0468 8.20312 13.8281C8.60937 13.4843 8.98437 13.1093 9.32812 12.7031Z" fill="white"/>
<path opacity="0.995" fill-rule="evenodd" clip-rule="evenodd" d="M9.51562 13.2656C9.66394 13.5821 9.72647 13.9258 9.70312 14.2969C8.45313 15.4844 7.23438 16.7032 6.04688 17.9531C5.59485 17.9392 5.15735 18.0018 4.73438 18.1406C5.19747 17.5521 5.69748 16.9896 6.23438 16.4531C7.35938 16.2656 8.01562 15.6094 8.20312 14.4844C8.64063 14.0782 9.07812 13.6718 9.51562 13.2656Z" fill="white"/>
<path opacity="0.999" fill-rule="evenodd" clip-rule="evenodd" d="M3.79688 13.3594C3.72848 13.7934 3.69724 14.231 3.70312 14.6719C3.32812 15.0157 2.95312 15.3593 2.57812 15.7031C2.41157 15.4214 2.31782 15.1089 2.29688 14.7656C2.79687 14.2969 3.29688 13.8281 3.79688 13.3594Z" fill="white"/>
<path opacity="0.997" fill-rule="evenodd" clip-rule="evenodd" d="M19.4531 13.9219C17.5781 15.7343 15.7343 17.5781 13.9219 19.4531C13.7344 19.4531 13.5469 19.4531 13.3594 19.4531C13.3594 18.9532 13.3594 18.4531 13.3594 17.9531C13.9219 17.9531 14.4844 17.9531 15.0469 17.9531C15.1472 17.4647 15.3035 16.9959 15.5156 16.5469C15.8906 16.2344 16.2344 15.8906 16.5469 15.5156C17.0068 15.3325 17.4756 15.1762 17.9531 15.0469C17.9531 14.4844 17.9531 13.9219 17.9531 13.3594C18.4531 13.3594 18.9532 13.3594 19.4531 13.3594C19.4531 13.5469 19.4531 13.7344 19.4531 13.9219Z" fill="white"/>
<path fill-rule="evenodd" clip-rule="evenodd" d="M19.4531 13.9219C19.4531 14.1406 19.4531 14.3594 19.4531 14.5781C17.7968 16.1719 16.1719 17.7968 14.5781 19.4531C14.3594 19.4531 14.1406 19.4531 13.9219 19.4531C15.7343 17.5781 17.5781 15.7343 19.4531 13.9219Z" fill="white"/>
<path opacity="0.995" fill-rule="evenodd" clip-rule="evenodd" d="M9.70312 14.2969C9.71062 14.6045 9.64809 14.8857 9.51562 15.1406C8.54688 16.0781 7.57812 17.0156 6.60938 17.9531C6.42188 17.9531 6.23438 17.9531 6.04688 17.9531C7.23438 16.7032 8.45313 15.4844 9.70312 14.2969Z" fill="white"/>
<path opacity="0.88" fill-rule="evenodd" clip-rule="evenodd" d="M15.6094 14.5781C15.2594 14.9275 14.9469 15.3025 14.6719 15.7031C14.5056 15.6268 14.4588 15.5018 14.5312 15.3281C14.7968 15.0625 15.0625 14.7969 15.3281 14.5313C15.4452 14.4619 15.539 14.4775 15.6094 14.5781Z" fill="white"/>
<path opacity="0.999" fill-rule="evenodd" clip-rule="evenodd" d="M22.2656 14.7656C21.5782 15.4844 20.8906 16.2031 20.2031 16.9219C19.9358 16.7727 19.6545 16.6477 19.3594 16.5469C19.7032 16.1406 20.0782 15.7656 20.4844 15.4219C20.6107 15.4714 20.7357 15.487 20.8594 15.4687C21.1718 15.1563 21.4844 14.8437 21.7969 14.5312C22.0245 14.4612 22.1807 14.5393 22.2656 14.7656Z" fill="white"/>
<path opacity="0.986" fill-rule="evenodd" clip-rule="evenodd" d="M3.70312 14.6719C3.77899 14.8151 3.84149 14.9713 3.89062 15.1406C3.51562 15.4531 3.17187 15.7969 2.85938 16.1719C2.69528 16.0632 2.60153 15.9069 2.57812 15.7031C2.95312 15.3593 3.32812 15.0157 3.70312 14.6719Z" fill="white"/>
<path fill-rule="evenodd" clip-rule="evenodd" d="M15.6094 14.5781C15.8594 14.7656 16.0781 14.9843 16.2656 15.2344C15.9162 15.5843 15.5412 15.8968 15.1406 16.1719C14.9531 16.0469 14.7968 15.8906 14.6719 15.7031C14.9469 15.3025 15.2594 14.9275 15.6094 14.5781Z" fill="white"/>
<path opacity="0.991" fill-rule="evenodd" clip-rule="evenodd" d="M22.2656 14.7656C22.4308 14.8371 22.5246 14.9621 22.5469 15.1406C21.8906 15.8594 21.2032 16.5469 20.4844 17.2031C20.3594 17.1406 20.2657 17.0468 20.2031 16.9219C20.8906 16.2031 21.5782 15.4844 22.2656 14.7656Z" fill="white"/>
<path opacity="0.999" fill-rule="evenodd" clip-rule="evenodd" d="M3.89062 15.1406C4.01562 15.3593 4.14063 15.5782 4.26562 15.7969C4.02202 16.1661 3.74077 16.5098 3.42188 16.8281C3.16475 16.6651 2.97725 16.4463 2.85938 16.1719C3.17187 15.7969 3.51562 15.4531 3.89062 15.1406Z" fill="white"/>
<path opacity="0.993" fill-rule="evenodd" clip-rule="evenodd" d="M9.51562 15.1406C9.35328 15.8504 9.00953 16.4598 8.48438 16.9688C8.53539 17.036 8.5979 17.0828 8.67188 17.1094C8.32812 17.4844 7.98438 17.8594 7.64062 18.2344C7.28227 18.156 6.93851 18.0622 6.60938 17.9531C7.57812 17.0156 8.54688 16.0781 9.51562 15.1406Z" fill="white"/>
<path fill-rule="evenodd" clip-rule="evenodd" d="M22.5469 15.1406C22.7532 15.1742 22.8783 15.2992 22.9219 15.5156C22.6108 15.8736 22.2827 16.2173 21.9375 16.5469C21.9393 16.6975 21.9548 16.8538 21.9844 17.0156C21.6094 17.3594 21.2344 17.7031 20.8594 18.0469C20.7585 17.7517 20.6335 17.4705 20.4844 17.2031C21.2032 16.5469 21.8906 15.8594 22.5469 15.1406Z" fill="white"/>
<path opacity="0.988" fill-rule="evenodd" clip-rule="evenodd" d="M16.2656 15.2344C16.3906 15.2969 16.4843 15.3907 16.5469 15.5156C16.2344 15.8906 15.8906 16.2344 15.5156 16.5469C15.3593 16.4531 15.2344 16.3282 15.1406 16.1719C15.5412 15.8968 15.9162 15.5843 16.2656 15.2344Z" fill="white"/>
<path opacity="0.988" fill-rule="evenodd" clip-rule="evenodd" d="M20.0156 15.2344C20.2081 15.2252 20.3644 15.2877 20.4844 15.4219C20.0782 15.7657 19.7032 16.1407 19.3594 16.5469C19.178 16.4859 18.9905 16.4547 18.7969 16.4531C19.1719 16.0156 19.5781 15.6094 20.0156 15.2344Z" fill="white"/>
<path opacity="0.991" fill-rule="evenodd" clip-rule="evenodd" d="M4.26562 15.7969C4.44267 15.9004 4.59893 16.0253 4.73438 16.1719C3.26562 17.6093 1.79688 19.0469 0.328125 20.4844C0.841254 18.9239 1.84125 17.7832 3.32812 17.0625C3.39866 16.9996 3.42992 16.9215 3.42188 16.8281C3.74077 16.5098 4.02202 16.1661 4.26562 15.7969Z" fill="white"/>
<path opacity="0.998" fill-rule="evenodd" clip-rule="evenodd" d="M4.73438 16.1719C5.01158 16.2802 5.29283 16.3739 5.57812 16.4531C4.89063 17.1719 4.20312 17.8906 3.51562 18.6094C3.01563 19.0469 2.54688 19.5157 2.10938 20.0156C1.39062 20.7031 0.671875 21.3907 -0.046875 22.0781C-0.046875 21.9532 -0.046875 21.8281 -0.046875 21.7031C0.0343035 21.285 0.159304 20.8788 0.328125 20.4844C1.79688 19.0469 3.26562 17.6093 4.73438 16.1719Z" fill="white"/>
<path opacity="0.995" fill-rule="evenodd" clip-rule="evenodd" d="M5.57812 16.4531C5.79687 16.4531 6.01563 16.4531 6.23438 16.4531C5.69748 16.9896 5.19747 17.5521 4.73438 18.1406C4.31773 18.2708 3.91148 18.4271 3.51562 18.6094C4.20312 17.8906 4.89063 17.1719 5.57812 16.4531Z" fill="white"/>
<path opacity="0.996" fill-rule="evenodd" clip-rule="evenodd" d="M19.4531 14.5781C19.4531 14.7344 19.4531 14.8906 19.4531 15.0469C19.6674 15.0558 19.8549 15.1183 20.0156 15.2344C19.5781 15.6094 19.1719 16.0156 18.7969 16.4531C17.2969 16.5157 16.5157 17.2969 16.4531 18.7969C16.0414 19.2091 15.6039 19.5841 15.1406 19.9219C15.0902 19.7703 15.059 19.614 15.0469 19.4531C14.8906 19.4531 14.7344 19.4531 14.5781 19.4531C16.1719 17.7968 17.7968 16.1719 19.4531 14.5781Z" fill="white"/>
<path opacity="0.988" fill-rule="evenodd" clip-rule="evenodd" d="M21.9844 17.0156C22.1257 17.1732 22.2195 17.3607 22.2656 17.5781C22.2078 17.5677 22.1609 17.5365 22.125 17.4844C21.7466 17.8785 21.3561 18.2535 20.9531 18.6094C20.9515 18.4158 20.9203 18.2283 20.8594 18.0469C21.2344 17.7031 21.6094 17.3594 21.9844 17.0156Z" fill="white"/>
<path opacity="0.987" fill-rule="evenodd" clip-rule="evenodd" d="M8.67188 17.1094C8.84704 17.1809 9.00329 17.2747 9.14062 17.3906C8.76562 17.7344 8.39062 18.0781 8.01562 18.4219C7.86066 18.4069 7.73566 18.3444 7.64062 18.2344C7.98438 17.8594 8.32812 17.4844 8.67188 17.1094Z" fill="white"/>
<path opacity="0.995" fill-rule="evenodd" clip-rule="evenodd" d="M9.14062 17.3906C9.38766 17.5135 9.60647 17.6698 9.79688 17.8594C9.48441 18.2344 9.14062 18.5782 8.76562 18.8906C8.51224 18.733 8.26223 18.5768 8.01562 18.4219C8.39062 18.0781 8.76562 17.7344 9.14062 17.3906Z" fill="white"/>
<path opacity="0.979" fill-rule="evenodd" clip-rule="evenodd" d="M9.79688 17.8594C9.95316 17.9531 10.0781 18.0781 10.1719 18.2344C9.79688 18.5468 9.45309 18.8906 9.14062 19.2656C8.98437 19.1719 8.85938 19.0469 8.76562 18.8906C9.14062 18.5782 9.48441 18.2344 9.79688 17.8594Z" fill="white"/>
<path fill-rule="evenodd" clip-rule="evenodd" d="M22.8281 17.9531C23.0468 17.9531 23.2657 17.9531 23.4844 17.9531C21.6719 19.8281 19.8281 21.6719 17.9531 23.4844C17.9531 23.2657 17.9531 23.0468 17.9531 22.8281C19.6094 21.2344 21.2344 19.6094 22.8281 17.9531Z" fill="white"/>
<path opacity="0.997" fill-rule="evenodd" clip-rule="evenodd" d="M23.4844 17.9531C23.6407 17.9531 23.7968 17.9531 23.9531 17.9531C23.9531 18.4531 23.9531 18.9532 23.9531 19.4531C23.4218 19.4531 22.8907 19.4531 22.3594 19.4531C22.2591 19.9416 22.1028 20.4103 21.8906 20.8594C21.5074 21.2437 21.1012 21.5873 20.6719 21.8906C20.3021 22.1216 19.8959 22.2778 19.4531 22.3594C19.4531 22.8907 19.4531 23.4218 19.4531 23.9531C18.9532 23.9531 18.4531 23.9531 17.9531 23.9531C17.9531 23.7968 17.9531 23.6407 17.9531 23.4844C19.8281 21.6719 21.6719 19.8281 23.4844 17.9531Z" fill="white"/>
<path opacity="0.995" fill-rule="evenodd" clip-rule="evenodd" d="M10.1719 18.2344C10.3959 18.3648 10.5522 18.5523 10.6406 18.7969C10.3656 19.1975 10.0531 19.5725 9.70312 19.9219C9.51834 19.7055 9.33087 19.4867 9.14062 19.2656C9.45309 18.8906 9.79688 18.5468 10.1719 18.2344Z" fill="white"/>
<path opacity="0.993" fill-rule="evenodd" clip-rule="evenodd" d="M10.6406 18.7969C10.7872 18.9323 10.9121 19.0885 11.0156 19.2656C10.6406 19.6094 10.2656 19.9531 9.89062 20.2969C9.82809 20.1719 9.76566 20.0468 9.70312 19.9219C10.0531 19.5725 10.3656 19.1975 10.6406 18.7969Z" fill="white"/>
<path opacity="0.991" fill-rule="evenodd" clip-rule="evenodd" d="M16.4531 18.7969C16.4547 18.9905 16.4859 19.178 16.5469 19.3594C16.1719 19.7032 15.7969 20.0468 15.4219 20.3906C15.3059 20.2533 15.2122 20.097 15.1406 19.9219C15.6039 19.5841 16.0414 19.2091 16.4531 18.7969Z" fill="white"/>
<path opacity="0.992" fill-rule="evenodd" clip-rule="evenodd" d="M11.0156 19.2656C11.1898 19.489 11.3149 19.7391 11.3906 20.0156C11.0468 20.4218 10.6718 20.7968 10.2656 21.1406C10.1663 20.8483 10.0414 20.5671 9.89062 20.2969C10.2656 19.9531 10.6406 19.6094 11.0156 19.2656Z" fill="white"/>
<path opacity="0.998" fill-rule="evenodd" clip-rule="evenodd" d="M16.5469 19.3594C16.6477 19.6545 16.7727 19.9358 16.9219 20.2031C16.2031 20.8594 15.5156 21.5468 14.8594 22.2656C14.7052 22.1738 14.5801 22.0489 14.4844 21.8906C14.7954 21.5327 15.1236 21.1889 15.4688 20.8594C15.467 20.7087 15.4514 20.5524 15.4219 20.3906C15.7969 20.0468 16.1719 19.7032 16.5469 19.3594Z" fill="white"/>
<path opacity="0.992" fill-rule="evenodd" clip-rule="evenodd" d="M2.10938 20.0156C1.92711 20.4115 1.77086 20.8178 1.64062 21.2344C1.14619 21.5723 0.708685 21.9786 0.328125 22.4531C0.203125 22.4531 0.078125 22.4531 -0.046875 22.4531C-0.046875 22.3282 -0.046875 22.2031 -0.046875 22.0781C0.671875 21.3907 1.39062 20.7031 2.10938 20.0156Z" fill="white"/>
<path opacity="0.993" fill-rule="evenodd" clip-rule="evenodd" d="M11.3906 20.0156C11.4878 20.1497 11.5504 20.306 11.5781 20.4844C11.2031 20.9219 10.7969 21.3281 10.3594 21.7031C10.3578 21.5095 10.3266 21.322 10.2656 21.1406C10.6718 20.7968 11.0468 20.4218 11.3906 20.0156Z" fill="white"/>
<path opacity="0.997" fill-rule="evenodd" clip-rule="evenodd" d="M16.9219 20.2031C17.0468 20.2657 17.1406 20.3594 17.2031 20.4844C16.5469 21.2032 15.8594 21.8906 15.1406 22.5469C14.9822 22.5135 14.8884 22.4197 14.8594 22.2656C15.5156 21.5468 16.2031 20.8594 16.9219 20.2031Z" fill="white"/>
<path opacity="0.996" fill-rule="evenodd" clip-rule="evenodd" d="M22.2656 17.5781C22.3344 17.6914 22.3657 17.8163 22.3594 17.9531C22.5157 17.9531 22.6718 17.9531 22.8281 17.9531C21.2344 19.6094 19.6094 21.2344 17.9531 22.8281C17.9531 22.6718 17.9531 22.5157 17.9531 22.3594C17.7923 22.3473 17.636 22.3161 17.4844 22.2656C17.8222 21.8023 18.1972 21.3649 18.6094 20.9531C20.1094 20.8906 20.8906 20.1094 20.9531 18.6094C21.3561 18.2535 21.7466 17.8785 22.125 17.4844C22.1609 17.5365 22.2078 17.5677 22.2656 17.5781Z" fill="white"/>
<path opacity="0.991" fill-rule="evenodd" clip-rule="evenodd" d="M11.5781 20.4844C11.7429 20.7988 11.8367 21.1426 11.8594 21.5156C11.5156 21.7969 11.2031 22.1093 10.9219 22.4531C10.7656 22.4531 10.6094 22.4531 10.4531 22.4531C10.4738 22.1926 10.4426 21.9426 10.3594 21.7031C10.7969 21.3281 11.2031 20.9219 11.5781 20.4844Z" fill="white"/>
<path opacity="0.998" fill-rule="evenodd" clip-rule="evenodd" d="M17.2031 20.4844C17.4705 20.6335 17.7517 20.7585 18.0469 20.8594C17.7031 21.2656 17.3281 21.6406 16.9219 21.9844C16.7956 21.9349 16.6705 21.9192 16.5469 21.9375C16.2173 22.2827 15.8736 22.6108 15.5156 22.9219C15.3574 22.8262 15.2324 22.7011 15.1406 22.5469C15.8594 21.8906 16.5469 21.2032 17.2031 20.4844Z" fill="white"/>
<path opacity="0.987" fill-rule="evenodd" clip-rule="evenodd" d="M18.0469 20.8594C18.2283 20.9203 18.4158 20.9515 18.6094 20.9531C18.1972 21.3649 17.8222 21.8023 17.4844 22.2656C17.2734 22.2066 17.0859 22.1128 16.9219 21.9844C17.3281 21.6406 17.7031 21.2656 18.0469 20.8594Z" fill="white"/>
<path opacity="0.988" fill-rule="evenodd" clip-rule="evenodd" d="M21.8906 20.8594C22.0156 20.9219 22.1093 21.0157 22.1719 21.1406C21.8219 21.49 21.5094 21.865 21.2344 22.2656C21.0707 22.1014 20.8832 21.9764 20.6719 21.8906C21.1012 21.5873 21.5074 21.2437 21.8906 20.8594Z" fill="white"/>
<path opacity="0.996" fill-rule="evenodd" clip-rule="evenodd" d="M1.64062 21.2344C1.50867 21.6265 1.44617 22.0328 1.45312 22.4531C1.07812 22.4531 0.703125 22.4531 0.328125 22.4531C0.708685 21.9786 1.14619 21.5723 1.64062 21.2344Z" fill="white"/>
<path fill-rule="evenodd" clip-rule="evenodd" d="M22.1719 21.1406C22.4219 21.3281 22.6406 21.5468 22.8281 21.7969C22.4787 22.1468 22.1037 22.4593 21.7031 22.7344C21.5156 22.6094 21.3593 22.4531 21.2344 22.2656C21.5094 21.865 21.8219 21.49 22.1719 21.1406Z" fill="white"/>
<path opacity="0.985" fill-rule="evenodd" clip-rule="evenodd" d="M11.8594 21.5156C11.9366 21.8216 11.9679 22.1342 11.9531 22.4531C11.6093 22.4531 11.2657 22.4531 10.9219 22.4531C11.2031 22.1093 11.5156 21.7969 11.8594 21.5156Z" fill="white"/>
<path opacity="0.958" fill-rule="evenodd" clip-rule="evenodd" d="M22.8281 21.7969C22.8841 21.8189 22.9153 21.8658 22.9219 21.9375C22.6251 22.3065 22.2814 22.6346 21.8906 22.9219C21.7948 22.8886 21.7323 22.8261 21.7031 22.7344C22.1037 22.4593 22.4787 22.1468 22.8281 21.7969Z" fill="white"/>
</g>
<defs>
<clipPath id="clip0_28_1384">
<rect width="24" height="24" fill="white"/>
</clipPath>
</defs>
</svg>
