<svg width="24" height="24" viewBox="0 0 24 24" fill="none" xmlns="http://www.w3.org/2000/svg">
<path fill-rule="evenodd" clip-rule="evenodd" d="M21.5 21H2.5C1.3955 21 0.5 20.1045 0.5 19V5C0.5 3.8955 1.3955 3 2.5 3H21.5C22.6045 3 23.5 3.8955 23.5 5V19C23.5 20.1045 22.6045 21 21.5 21ZM6 4H2.5C1.948 4 1.5 4.448 1.5 5V6H6V4ZM11.5 4H7V6H11.5V4ZM17 4H12.5V6H17V4ZM22.5 5C22.5 4.448 22.052 4 21.5 4H18V6H22.5V5ZM22.5 7H1.5V17H22.5V7ZM22.5 18H18V20H17V18H12.5V20H11.5V18H7V20H6V18H1.5V19C1.5 19.552 1.948 20 2.5 20H21.5C22.052 20 22.5 19.552 22.5 19V18ZM10.8105 14.8825C10.7245 14.952 10.619 15 10.5 15C10.2235 15 10 14.7765 10 14.5V9.5C10 9.224 10.2235 9 10.5 9C10.6065 9 10.7 9.041 10.7815 9.098L14.667 11.534C14.86 11.6025 15 11.783 15 12C15 12.1625 14.9175 12.3005 14.7975 12.3915L10.8105 14.8825Z" fill="white"/>
</svg>
