<svg width="25" height="25" viewBox="0 0 25 25" fill="none" xmlns="http://www.w3.org/2000/svg">
<path d="M3.14868 7.78882H21.8987C22.7612 7.78882 23.4612 7.08882 23.4612 6.22632C23.4612 5.36382 22.7612 4.66382 21.8987 4.66382H3.14868C2.28618 4.66382 1.58618 5.36382 1.58618 6.22632C1.58618 7.08882 2.28618 7.78882 3.14868 7.78882ZM21.8987 10.9138H3.14868C2.28618 10.9138 1.58618 11.6138 1.58618 12.4763C1.58618 13.3388 2.28618 14.0388 3.14868 14.0388H21.8987C22.7612 14.0388 23.4612 13.3388 23.4612 12.4763C23.4612 11.6138 22.7612 10.9138 21.8987 10.9138ZM21.8987 17.1638H3.14868C2.28618 17.1638 1.58618 17.8638 1.58618 18.7263C1.58618 19.5888 2.28618 20.2888 3.14868 20.2888H21.8987C22.7612 20.2888 23.4612 19.5888 23.4612 18.7263C23.4612 17.8638 22.7612 17.1638 21.8987 17.1638Z" fill="white"/>
</svg>
