<?xml version="1.0" encoding="UTF-8"?>
<!DOCTYPE svg PUBLIC "-//W3C//DTD SVG 1.1//EN" "http://www.w3.org/Graphics/SVG/1.1/DTD/svg11.dtd">
<svg xmlns="http://www.w3.org/2000/svg" version="1.1" width="620px" height="125px" style="shape-rendering:geometricPrecision; text-rendering:geometricPrecision; image-rendering:optimizeQuality; fill-rule:evenodd; clip-rule:evenodd" xmlns:xlink="http://www.w3.org/1999/xlink">
<g><path style="opacity:0.996" fill="#060300" d="M 18.5,10.5 C 49.8351,10.3334 81.1684,10.5 112.5,11C 114.333,12.1667 115.833,13.6667 117,15.5C 117.667,46.8333 117.667,78.1667 117,109.5C 115.833,111.333 114.333,112.833 112.5,114C 81.1667,114.667 49.8333,114.667 18.5,114C 16.6667,112.833 15.1667,111.333 14,109.5C 13.3333,78.1667 13.3333,46.8333 14,15.5C 15.3657,13.6383 16.8657,11.9717 18.5,10.5 Z"/></g>
<g><path style="opacity:0.887" fill="#fefffe" d="M 130.5,23.5 C 136.5,23.5 142.5,23.5 148.5,23.5C 148.5,49.5 148.5,75.5 148.5,101.5C 142.5,101.5 136.5,101.5 130.5,101.5C 130.5,75.5 130.5,49.5 130.5,23.5 Z"/></g>
<g><path style="opacity:0.92" fill="#fefffe" d="M 177.5,23.5 C 199.167,23.5 220.833,23.5 242.5,23.5C 242.5,28.8333 242.5,34.1667 242.5,39.5C 234.5,39.5 226.5,39.5 218.5,39.5C 218.5,60.1667 218.5,80.8333 218.5,101.5C 212.833,101.5 207.167,101.5 201.5,101.5C 201.5,80.8333 201.5,60.1667 201.5,39.5C 193.5,39.5 185.5,39.5 177.5,39.5C 177.5,34.1667 177.5,28.8333 177.5,23.5 Z"/></g>
<g><path style="opacity:0.918" fill="#fefffe" d="M 276.5,23.5 C 291.833,23.5 307.167,23.5 322.5,23.5C 322.5,28.8333 322.5,34.1667 322.5,39.5C 312.833,39.5 303.167,39.5 293.5,39.5C 293.5,44.5 293.5,49.5 293.5,54.5C 303.167,54.5 312.833,54.5 322.5,54.5C 322.5,59.8333 322.5,65.1667 322.5,70.5C 312.833,70.5 303.167,70.5 293.5,70.5C 293.5,80.8333 293.5,91.1667 293.5,101.5C 287.833,101.5 282.167,101.5 276.5,101.5C 276.5,75.5 276.5,49.5 276.5,23.5 Z"/></g>
<g><path style="opacity:0.94" fill="#fefffe" d="M 358.5,23.5 C 364.167,23.5 369.833,23.5 375.5,23.5C 375.5,44.5 375.5,65.5 375.5,86.5C 386.833,86.5 398.167,86.5 409.5,86.5C 409.5,91.5 409.5,96.5 409.5,101.5C 392.5,101.5 375.5,101.5 358.5,101.5C 358.5,75.5 358.5,49.5 358.5,23.5 Z"/></g>
<g><path style="opacity:0.915" fill="#fefffe" d="M 444.5,23.5 C 460.833,23.5 477.167,23.5 493.5,23.5C 493.5,28.8333 493.5,34.1667 493.5,39.5C 482.833,39.5 472.167,39.5 461.5,39.5C 461.5,44.1667 461.5,48.8333 461.5,53.5C 471.5,53.5 481.5,53.5 491.5,53.5C 491.5,58.8333 491.5,64.1667 491.5,69.5C 481.5,69.5 471.5,69.5 461.5,69.5C 461.5,75.1667 461.5,80.8333 461.5,86.5C 472.167,86.5 482.833,86.5 493.5,86.5C 493.5,91.5 493.5,96.5 493.5,101.5C 477.167,101.5 460.833,101.5 444.5,101.5C 444.5,75.5 444.5,49.5 444.5,23.5 Z"/></g>
<g><path style="opacity:0.908" fill="#fefffe" d="M 528.5,23.5 C 535.863,23.1694 543.197,23.5027 550.5,24.5C 555.333,31.5 560.167,38.5 565,45.5C 569.984,38.2523 575.151,31.0856 580.5,24C 587.492,23.5004 594.492,23.3337 601.5,23.5C 601.509,25.3084 601.009,26.9751 600,28.5C 592.278,39.4561 584.445,50.2895 576.5,61C 585.545,73.5888 594.711,86.0888 604,98.5C 604.667,99.8333 604.667,101.167 604,102.5C 596.587,101.519 589.087,101.186 581.5,101.5C 581.649,100.448 581.483,99.448 581,98.5C 575.177,91.5209 569.844,84.1876 565,76.5C 559.759,84.64 554.259,92.64 548.5,100.5C 541.277,101.183 534.11,101.849 527,102.5C 526.333,101.167 526.333,99.8333 527,98.5C 536.027,86.306 544.861,73.9727 553.5,61.5C 546.158,50.1482 538.324,39.1482 530,28.5C 528.991,26.9751 528.491,25.3084 528.5,23.5 Z"/></g>
<g><path style="opacity:1" fill="#fc9b01" d="M 33.5,23.5 C 38.1785,23.3342 42.8452,23.5008 47.5,24C 59.3839,38.8828 70.8839,54.0495 82,69.5C 82.4999,54.1703 82.6666,38.837 82.5,23.5C 88.1667,23.5 93.8333,23.5 99.5,23.5C 99.5,49.1667 99.5,74.8333 99.5,100.5C 94.4889,100.666 89.4889,100.499 84.5,100C 73,84.5 61.5,69 50,53.5C 49.5001,69.4965 49.3334,85.4965 49.5,101.5C 43.8333,101.5 38.1667,101.5 32.5,101.5C 32.1763,75.4257 32.5096,49.4257 33.5,23.5 Z"/></g>
</svg>
