<svg width="24" height="24" viewBox="0 0 24 24" fill="none" xmlns="http://www.w3.org/2000/svg">
<g clip-path="url(#clip0_28_541)">
<path d="M15.4 13.6C13.8 12.5 11.8 11.9 9.60001 11.9C4.60001 11.9 0.800009 14.8 0.400009 20.5C0.300009 21.8 1.40001 22.9 2.60001 22.9H15.3" stroke="white" stroke-width="1.5" stroke-miterlimit="10" stroke-linecap="round" stroke-linejoin="round"/>
<path d="M12.9 3.69999C12.9 1.89999 11.4 0.399994 9.59999 0.399994C7.79999 0.399994 6.29999 1.89999 6.29999 3.69999V5.59999C6.29999 7.39999 7.79999 8.89999 9.59999 8.89999C11.4 8.89999 12.9 7.39999 12.9 5.59999V3.69999Z" stroke="white" stroke-width="1.5" stroke-miterlimit="10" stroke-linecap="round" stroke-linejoin="round"/>
<path d="M23.2 17.4L22.2 17C22.2 16.7 22.1 16.4 22 16.2L22.7 15.4C22.9 15.1 22.9 14.7 22.7 14.4L21.8 13.3C21.5 13 21.1 12.9 20.8 13.1L19.9 13.6C19.6 13.4 19.4 13.3 19.1 13.2L18.9 12.2C18.8 11.8 18.5 11.6 18.1 11.6H16.7C16.3 11.6 16 11.9 15.9 12.3L15.7 13.3C15.4 13.4 15.2 13.5 14.9 13.7L14 13C13.7 12.8 13.2 12.9 13 13.2L12.1 14.3C11.9 14.6 11.9 15 12.1 15.3L12.8 16.1C12.7 16.4 12.6 16.7 12.6 16.9L11.7 17.3C11.3 17.5 11.1 17.8 11.2 18.2L11.5 19.5C11.6 19.9 11.9 20.2 12.3 20.2H13.3C13.5 20.4 13.6 20.7 13.8 20.9L13.6 21.9C13.5 22.3 13.7 22.7 14 22.9L15.2 23.5C15.3 23.6 15.5 23.6 15.6 23.6C15.9 23.6 16.1 23.5 16.3 23.3L16.9 22.5C17.2 22.5 17.5 22.5 17.8 22.5L18.4 23.3C18.6 23.6 19.1 23.7 19.4 23.5L20.7 22.9C21 22.7 21.2 22.3 21.1 22L20.9 21C21.1 20.8 21.3 20.6 21.4 20.3H22.4C22.8 20.3 23.1 20 23.2 19.7L23.5 18.4C23.7 17.9 23.5 17.6 23.2 17.4ZM17.4 19.5C16.4 19.5 15.5 18.7 15.5 17.6C15.5 16.6 16.3 15.7 17.4 15.7C18.5 15.7 19.3 16.5 19.3 17.6C19.3 18.7 18.4 19.5 17.4 19.5Z" fill="white"/>
</g>
<defs>
<clipPath id="clip0_28_541">
<rect width="24" height="24" fill="white"/>
</clipPath>
</defs>
</svg>
