<svg width="24" height="24" viewBox="0 0 24 24" fill="none" xmlns="http://www.w3.org/2000/svg">
<path d="M22.26 3.132H21.06V1.932C21.06 1.632 20.82 1.392 20.52 1.392C20.22 1.392 19.98 1.632 19.98 1.932V3.132H18.78C18.48 3.132 18.24 3.372 18.24 3.672C18.24 3.972 18.48 4.212 18.78 4.212H19.98V5.412C19.98 5.712 20.22 5.952 20.52 5.952C20.82 5.952 21.06 5.712 21.06 5.412V4.2H22.26C22.56 4.2 22.8 3.96 22.8 3.66C22.8 3.36 22.56 3.12 22.26 3.12V3.132Z" fill="white"/>
<path d="M17.256 12C19.008 10.632 19.32 8.10001 17.952 6.34801C17.208 5.38801 16.068 4.82401 14.856 4.80001C13.872 4.80001 12.924 5.17201 12.204 5.84401C10.932 3.48001 7.99201 2.59801 5.62801 3.87001C3.26401 5.14201 2.38201 8.08201 3.65401 10.44C4.04401 11.16 4.60801 11.778 5.29801 12.222C2.92201 12.918 1.20001 14.91 1.20001 17.262V22.062C1.20001 22.362 1.44001 22.602 1.74001 22.602H14.268C14.568 22.602 14.808 22.362 14.808 22.062V21.09H19.932C20.232 21.09 20.472 20.85 20.472 20.55V16.38C20.448 14.382 19.152 12.624 17.256 12ZM14.856 5.85001C16.482 5.82001 17.82 7.10401 17.856 8.73001C17.886 10.356 16.602 11.694 14.976 11.73C13.902 11.754 12.9 11.184 12.366 10.254L12.396 10.17C12.444 10.068 12.486 9.96601 12.528 9.86401C12.57 9.76201 12.606 9.62401 12.642 9.50401C12.678 9.38401 12.672 9.40801 12.684 9.35401C12.786 8.97001 12.84 8.58001 12.84 8.18401C12.84 7.92601 12.84 7.68001 12.804 7.42801C12.78 7.27201 12.75 7.11601 12.708 6.96601C12.708 6.96601 12.708 6.91801 12.708 6.90001C13.242 6.24001 14.04 5.85601 14.886 5.85001H14.856ZM11.646 12.6C11.334 12.456 11.016 12.336 10.686 12.246C11.094 11.976 11.46 11.646 11.766 11.262C12 11.568 12.282 11.832 12.6 12.054C12.276 12.198 11.976 12.39 11.706 12.612L11.646 12.6ZM4.20001 8.18401C4.19401 6.10201 5.88601 4.41001 7.96801 4.40401C9.58201 4.40401 11.022 5.42401 11.544 6.95401C11.688 7.35001 11.76 7.76401 11.76 8.18401C11.754 8.59201 11.688 9.00001 11.556 9.38401C11.082 10.788 9.72001 11.952 8.18401 11.952H7.74001C5.75401 11.826 4.20001 10.176 4.20001 8.18401ZM13.728 21.546H2.28001V17.262C2.28001 16.386 2.60401 15.534 3.15601 14.856C3.73801 14.142 4.54201 13.626 5.41801 13.338C5.95201 13.164 6.51601 13.092 7.07401 13.068C7.65001 13.044 8.24401 13.008 8.82001 13.056C9.12001 13.08 9.42001 13.14 9.71401 13.2C10.026 13.266 10.332 13.344 10.632 13.434C10.782 13.476 10.926 13.53 11.076 13.578C11.508 13.728 11.892 13.95 12.258 14.226C12.486 14.4 12.654 14.604 12.852 14.802C13.014 14.964 13.14 15.204 13.236 15.408C13.392 15.726 13.464 16.074 13.542 16.416C13.674 17.01 13.734 17.61 13.734 18.222C13.734 18.63 13.734 19.038 13.734 19.446C13.734 20.136 13.734 20.82 13.734 21.51C13.734 21.528 13.734 21.552 13.734 21.57L13.728 21.546ZM19.392 20.01H14.808V17.262C14.808 17.262 14.808 17.226 14.808 17.208C14.808 17.19 14.808 17.1 14.808 17.04C14.748 16.098 14.442 15.186 13.926 14.4C13.896 14.358 13.86 14.316 13.83 14.268C13.722 14.124 13.608 13.98 13.488 13.848L13.458 13.812C13.248 13.584 13.008 13.374 12.75 13.2C13.224 12.918 13.764 12.78 14.316 12.81H15.648C17.664 12.768 19.338 14.364 19.392 16.38V20.01Z" fill="white"/>
</svg>
